<?xml version="1.0" standalone="no"?>
<!DOCTYPE svg PUBLIC "-//W3C//DTD SVG 1.1//EN" "http://www.w3.org/Graphics/SVG/1.1/DTD/svg11.dtd" >
<svg>
<metadata>
Created by FontForge 20090622 at Mon Oct 15 06:17:53 2018
 By deploy user
</metadata>
<defs>
<font id="Bamini" horiz-adv-x="883" >
  <font-face 
    font-family="Bamini"
    font-weight="400"
    font-stretch="normal"
    units-per-em="2030"
    panose-1="2 11 6 3 5 3 2 2 2 4"
    ascent="1624"
    descent="-406"
    x-height="895"
    cap-height="903"
    bbox="-836 -453 3700 1739"
    underline-thickness="0"
    underline-position="0"
    unicode-range="U+0020-U+201A"
  />
<missing-glyph horiz-adv-x="1480" 
d="M92 0v1480h1296v-1480h-1296zM1296 92v1296h-1112v-1296h1112z" />
    <glyph glyph-name=".notdef" horiz-adv-x="1480" 
d="M92 0v1480h1296v-1480h-1296zM1296 92v1296h-1112v-1296h1112z" />
    <glyph glyph-name="nonmarkingreturn" horiz-adv-x="0" 
 />
    <glyph glyph-name="space" horiz-adv-x="1150" 
 />
    <glyph glyph-name="exclam" unicode=" " horiz-adv-x="1150" 
 />
    <glyph glyph-name="quotedbl" unicode="!" horiz-adv-x="607" 
d="M266 6q-15 13 -21.5 29.5t-9.5 39.5q0 23 6.5 38t29 38.5t64.5 23.5q40 0 69.5 -29.5t29.5 -70.5q0 -37 -29 -66t-72 -29q-38 0 -67 26zM428 1058l-2 -37l-40 -339l-43 -361h-22l-19 197q0 43 -15 151.5l-22 159.5t-14.5 118.5l-15.5 138.5q0 25 5.5 50.5t15.5 51.5
q21 46 79 46q57 0 83 -63q5 -18 8.5 -38.5t3.5 -44.5q-2 -8 -2 -17v-13z" />
    <glyph glyph-name="quotedbl" horiz-adv-x="607" 
d="M266 6q-15 13 -21.5 29.5t-9.5 39.5q0 23 6.5 38t29 38.5t64.5 23.5q40 0 69.5 -29.5t29.5 -70.5q0 -37 -29 -66t-72 -29q-38 0 -67 26zM428 1058l-2 -37l-40 -339l-43 -361h-22l-19 197q0 43 -15 151.5l-22 159.5t-14.5 118.5l-15.5 138.5q0 25 5.5 50.5t15.5 51.5
q21 46 79 46q57 0 83 -63q5 -18 8.5 -38.5t3.5 -44.5q-2 -8 -2 -17v-13z" />
    <glyph glyph-name="numbersign" unicode="&#x22;" horiz-adv-x="674" 
d="M268 1039q-31 -36 -65 -63.5t-69 -43.5l-18 34q42 23 69.5 47.5t43.5 52.5q15 23 23 47.5t10 41.5q0 10 -8 18q-10 4 -16 4l-57 -8q-35 0 -66.5 24.5t-31.5 67.5q0 34 29 69q18 30 79 30q29 0 51 -9.5t44 -33.5q45 -40 45 -117q0 -86 -63 -161zM562 1039
q-58 -73 -134 -107l-18 34q85 46 114 100q14 23 22.5 48t9.5 41q0 10 -8 18q-10 4 -16 4l-57 -8q-32 0 -67 25q-15 13 -21.5 28t-6.5 39q0 19 5.5 34.5t20.5 34.5q18 30 79 30q30 0 51.5 -9.5t44.5 -33.5q44 -41 44 -117q0 -86 -63 -161z" />
    <glyph glyph-name="dollar" unicode="#" horiz-adv-x="1728" 
d="M1309 365q18 9 35 14t40 5q137 0 201.5 -62.5t64.5 -197.5q0 -253 -210 -377.5t-579 -124.5q-351 0 -568.5 187t-217.5 550q0 184 61.5 319.5t151.5 218.5l57 -65q-46 -43 -87.5 -103t-70.5 -153t-29 -217q0 -310 177.5 -482.5t525.5 -172.5q266 0 408 63.5t187.5 156
t45.5 210.5q0 158 -113 158q-32 0 -56 -20t-24 -55v-217h-150v463h-195v-142q0 -68 -28 -141.5t-101.5 -128.5t-199.5 -55q-165 0 -251 79t-86 213q0 110 65.5 172t125.5 74v361h766v-77h-291v-278h427v-77h-82v-98zM585 463q-90 0 -148.5 -49.5t-58.5 -137.5
q0 -78 49 -134.5t152 -56.5q148 0 191.5 72t43.5 166v140h-229zM566 818v-278h248v278h-248z" />
    <glyph glyph-name="percent" unicode="$" horiz-adv-x="1707" 
d="M737 463v-142q0 -69 -28.5 -142t-102 -128t-200.5 -55q-164 0 -249.5 79t-85.5 213q0 111 65 173t126 73v361h765v-77h-290v-278h122q36 0 87.5 -7t72.5 -19q27 22 81 44.5t120 22.5q148 0 232.5 -80.5t84.5 -224.5q0 -78 -23 -123t-48 -76h170v-77h-331v28q50 43 75 91
t25 139q0 84 -52.5 161.5t-158.5 77.5q-44 0 -63.5 -6.5t-28.5 -15.5q39 -24 74.5 -78.5t35.5 -146.5q0 -120 -46.5 -188t-120.5 -68q-71 0 -111.5 77t-40.5 164q0 83 16 124t45 90q-10 5 -24.5 9.5t-72.5 4.5h-120zM355 463q-89 0 -147 -49.5t-58 -137.5q0 -78 49 -134.5
t152 -56.5q116 0 176 56t60 182v140h-232zM339 818v-278h248v278h-248zM1015 402q-22 -22 -34.5 -67t-12.5 -91q0 -55 20 -92.5t47 -37.5q25 0 38 44.5t13 101.5q0 41 -20.5 82.5t-50.5 59.5z" />
    <glyph glyph-name="ampersand" unicode="%" horiz-adv-x="1805" 
d="M146 280q0 -262 131 -422t377 -160q151 0 244 54.5t134.5 125t47.5 122.5h-471v895h150v-818h325v591q0 73 62 154t220 81q153 0 259.5 -109.5t106.5 -326.5q0 -195 -88.5 -298.5t-199.5 -136t-212 -32.5q-9 -86 -69 -172.5t-188 -147t-325 -60.5q-257 0 -419 169
t-162 477q0 219 80 381.5t150 181t86 18.5q58 0 97.5 -49.5t39.5 -117.5q0 -90 -56 -141.5t-127 -51.5q-45 0 -84 30t-48 76q-36 -98 -48.5 -160.5t-12.5 -152.5zM337 741q-27 -4 -47 -37.5t-20 -64.5q0 -36 23 -60t52 -21q27 0 45.5 23.5t18.5 58.5q0 8 -1 12q0 39 -19 66
t-52 23zM1234 77q173 0 295.5 88t122.5 304q0 185 -81.5 270t-171.5 85q-81 0 -123 -39t-42 -105v-603z" />
    <glyph glyph-name="quotesingle" unicode="&#x26;" horiz-adv-x="1492" 
d="M73 305q0 220 69.5 384t176.5 164q60 0 104 -47t44 -130q0 -89 -47 -136t-118 -47q-30 0 -67.5 25.5t-45.5 62.5q-16 -45 -28.5 -108t-12.5 -166q0 -273 165.5 -442.5t429.5 -169.5q274 0 405 137t131 381q0 130 -53 201t-134 71q-39 0 -64 -16.5t-39 -42.5v-426h-151
v818h-247v-818h-77v895h720v-77h-245v-294q25 25 60.5 40t85.5 15q53 0 118 -30t115.5 -110t50.5 -220q0 -256 -160.5 -427.5t-513.5 -171.5q-302 0 -487 191t-185 494zM290 755q-26 0 -40.5 -33.5t-14.5 -67.5q0 -39 19 -64.5t42 -25.5q30 0 46.5 29t16.5 73q0 43 -19.5 66
t-49.5 23z" />
    <glyph glyph-name="parenleft" unicode="'" horiz-adv-x="674" 
d="M426 1259q32 37 65 63.5t69 41.5l19 -32q-87 -47 -114 -100q-15 -24 -23 -48t-10 -43q0 -9 9 -16q10 -4 16 -4l57 8q30 0 67 -25q28 -25 28 -67q0 -20 -5.5 -35t-20.5 -34q-19 -32 -80 -32q-27 0 -51 10.5t-44 33.5q-45 40 -45 116q0 83 63 163zM132 1259q61 75 134 105
l16 -32q-84 -47 -111 -100q-15 -23 -24 -48.5t-11 -42.5q0 -9 10 -16l14 -4l59 8q32 0 67 -25q29 -24 29 -67q0 -20 -5.5 -34.5t-21.5 -34.5q-20 -32 -79 -32q-28 0 -52 10.5t-43 33.5q-47 38 -47 116q0 83 65 163z" />
    <glyph glyph-name="parenright" unicode="(" horiz-adv-x="607" 
d="M268 1003q61 75 125 130.5t143 100.5l18 -30q-145 -115 -202 -214t-82.5 -223.5t-25.5 -285.5q0 -117 9 -211.5t37.5 -197.5t96 -202t167.5 -166l-22 -31q-109 55 -279 260t-170 526q0 311 185 544z" />
    <glyph glyph-name="asterisk" unicode=")" horiz-adv-x="607" 
d="M483 199q-16 -59 -40.5 -112t-78 -140.5t-131.5 -151t-111 -87t-57 -35.5l-16 31q135 105 222.5 255t87.5 467q0 130 -12 232.5t-43.5 202t-95.5 189t-159 154.5l22 30q141 -77 294 -278.5t153 -504.5q0 -68 -9 -129.5t-26 -122.5z" />
    <glyph glyph-name="plus" unicode="*" horiz-adv-x="1776" 
d="M1169 0v-67q34 8 75.5 13t87.5 5q96 0 157.5 -27.5t61.5 -89.5q0 -65 -65.5 -131t-212.5 -111t-378 -45q-359 0 -587.5 229.5t-228.5 538.5q0 211 72 361.5t134.5 165t82.5 14.5q61 0 98 -45t37 -113q0 -101 -56 -156t-128 -55q-43 0 -78 26.5t-40 58.5
q-22 -73 -33.5 -122.5t-11.5 -149.5q0 -150 85 -307t253.5 -263t400.5 -106q271 0 389.5 64.5t118.5 143.5q0 24 -33 36t-93 12q-29 0 -57 -4t-51 -10v-91h-150v225h-434v895h148v-818h286v591q0 76 59 155.5t223 79.5q172 0 288 -111.5t116 -324.5q0 -197 -87.5 -300
t-204.5 -135t-244 -32zM325 734q-31 0 -52.5 -26.5t-21.5 -55.5q0 -38 23.5 -61.5t55.5 -20.5q30 0 48.5 27.5t18.5 66.5q0 36 -20.5 54.5t-51.5 15.5zM1169 77q211 0 335 86t124 306q0 188 -89 271.5t-207 83.5q-79 0 -121 -39t-42 -105v-603z" />
    <glyph glyph-name="comma" unicode="+" horiz-adv-x="248" 
d="M-121 0v51q14 24 51.5 42.5t80.5 18.5q91 0 132.5 -48.5t41.5 -138.5q0 -160 -148.5 -232.5t-373.5 -72.5q-216 0 -357.5 51.5t-141.5 143.5q0 74 72.5 82t148.5 8q56 0 103.5 -18t77.5 -37v-55q-35 22 -71.5 35.5t-74.5 13.5q-53 0 -87.5 -11t-34.5 -46q0 -53 109 -79.5
t246 -26.5q177 0 282.5 47t105.5 173q0 56 -17.5 82.5t-67.5 26.5q-32 0 -47 -13t-27 -44v-121h-150v168h147z" />
    <glyph glyph-name="hyphen" unicode="," horiz-adv-x="1567" 
d="M733 932q207 0 319 -122t112 -311q0 -92 -27 -190q103 -34 165 -62.5t120 -97t58 -177.5q0 -98 -98.5 -177t-283.5 -79q-156 0 -212.5 15t-152.5 54q-22 -9 -43 -19q-57 -22 -140 -39t-183 -17q-108 0 -202 55.5t-94 204.5q0 43 40.5 103t130.5 116q-62 76 -97 206.5
t-35 284.5t68.5 296t221.5 234.5t396 92.5q253 0 394.5 -126.5t192 -297.5t50.5 -329l-10 -284l-81 4l10 288q0 136 -47.5 271.5t-174.5 232.5t-350 97q-216 0 -347 -83.5t-184.5 -202t-53.5 -234.5q0 -161 33.5 -252.5t84.5 -157.5q121 61 253.5 89t272.5 28q82 0 160 -9
q12 28 21 76t9 97q0 138 -65.5 236t-216.5 98h-20q-22 0 -33 -6h-4q78 0 127.5 -55.5t49.5 -130.5q0 -96 -64.5 -150.5t-175.5 -54.5q-94 0 -147.5 64t-53.5 145q0 122 89.5 199t217.5 77zM686 -110q66 42 154.5 148.5t129.5 225.5q-28 2 -66 4t-52 2q-119 0 -248 -25
t-247 -91q47 -62 99 -109t92.5 -73.5t137.5 -81.5zM605 775q-46 0 -74 -33t-28 -84v-12q5 -56 33.5 -88t80.5 -32q48 0 78 34t30 98q0 58 -33.5 87.5t-86.5 29.5zM288 114q-50 -32 -76.5 -80.5t-26.5 -86.5q0 -90 57 -125t150 -35q49 0 118.5 18.5t106.5 42.5
q-94 44 -188 121.5t-141 144.5zM810 -164q82 -37 218 -37q105 0 184.5 28.5t102 84t22.5 99.5q0 84 -67.5 135t-159.5 77q-37 -110 -125.5 -224t-174.5 -163z" />
    <glyph glyph-name="period" unicode="-" horiz-adv-x="489" 
d="M59 503h379v-111h-379v111z" />
    <glyph glyph-name="slash" unicode="." horiz-adv-x="426" 
d="M213 193q42 0 72 -30t30 -74q0 -41 -30 -71t-72 -30q-43 0 -72 30t-29 71q0 43 29.5 73.5t71.5 30.5z" />
    <glyph glyph-name="zero" unicode="/" horiz-adv-x="1269" 
d="M593 1165q50 0 86 -36t36 -86t-35.5 -85.5t-86.5 -35.5q-50 0 -86 35t-36 86q0 50 36 86t86 36zM183 223q51 0 86.5 -35.5t35.5 -85.5t-36 -86t-86 -36t-86 36t-36 86q0 49 36 85t86 36zM1082 223q51 0 86.5 -35.5t35.5 -85.5t-36 -86t-86 -36t-86 36t-36 86q0 49 36 85
t86 36z" />
    <glyph glyph-name="one" unicode="0" 
d="M729 980q85 -169 85 -385q0 -94 -12.5 -170.5t-76 -258.5t-315.5 -182q-169 0 -252.5 118.5t-113.5 230.5t-30 254q0 220 92.5 411.5t311.5 191.5q196 0 311 -210zM597 171q23 72 35 171t12 230q0 113 -7 190t-39.5 228t-183.5 151q-144 0 -178.5 -148.5t-41.5 -237
t-7 -191.5q0 -201 42 -366.5t193 -165.5q126 0 175 139z" />
    <glyph glyph-name="two" unicode="1" 
d="M526 1181l2 -10v-1041q0 -66 26.5 -79.5t60 -20t79.5 -6.5v-24h-485l-2 26q48 0 83.5 8.5t60.5 26t25 93.5v802q0 21 -2.5 34.5t-8.5 28.5q-13 20 -44 20q-15 0 -29 -2.5t-30 -9.5l-67 -24v22l317 163h10z" />
    <glyph glyph-name="three" unicode="2" 
d="M53 20q164 169 266 285t159.5 194.5t87 154.5t29.5 148q0 62 -18 110.5t-70 100t-148 51.5q-118 0 -174 -66.5t-94 -165.5l-36 6q39 200 118 257.5t133.5 78t113.5 20.5q73 0 132 -23.5t127 -91t68 -204.5q0 -71 -23.5 -139.5t-74 -135t-156.5 -184l-266 -282.5h396
q85 0 116 20q33 18 75 98l22 -10l-97 -242h-688z" />
    <glyph glyph-name="four" unicode="3" 
d="M262 102q77 -51 134 -51q120 0 178.5 81.5t58.5 178.5q0 87 -64.5 184.5t-253.5 97.5q-15 0 -23 -2l-24 -2l-2 22q140 51 218 115t78 171q0 93 -61.5 143t-143.5 50q-91 0 -137 -42t-67.5 -73t-46.5 -72l-29 6q37 131 130.5 210t216.5 79q132 0 204 -73.5t72 -166.5
q0 -83 -47 -139.5t-115 -103.5q83 -38 154 -106t71 -207q0 -83 -31.5 -155t-129.5 -165.5t-334 -93.5q-106 0 -138 23.5t-43.5 40t-11.5 33.5q0 12 3 21t11 24q7 9 19.5 13.5t29.5 4.5q48 0 124 -46z" />
    <glyph glyph-name="five" unicode="4" 
d="M570 1188h82v-780h182v-114h-180l-2 -294h-136v294h-498v114zM514 1009l-423 -601h425z" />
    <glyph glyph-name="six" unicode="5" 
d="M260 102q82 -55 124 -55q101 0 174 88.5t73 213.5q0 222 -186 300t-299 78q-18 0 -22 2l-12 8l2 10l4 12l187 412h371q27 0 39 7.5t22.5 18l19.5 19.5l14 -12l-69 -161q0 -7 -14 -9.5t-36 -2.5h-333l-73 -152q77 -12 125 -22t80 -23q107 -35 175 -101.5t91 -123t31.5 -99
t8.5 -84.5q0 -96 -32.5 -174t-134.5 -174t-312 -96q-80 0 -151.5 20t-71.5 91q2 17 6 26.5t14 18.5q15 18 57 18q26 0 56.5 -12.5t71.5 -41.5z" />
    <glyph glyph-name="seven" unicode="6" 
d="M725 108q-104 -126 -264 -126q-77 0 -145.5 35t-161.5 142t-93 344q0 304 174.5 459t295.5 201.5t255 46.5l6 -29q-107 -21 -189 -52q-38 -19 -73.5 -43.5t-64.5 -53.5t-59.5 -70t-57.5 -87.5t-46 -93.5t-32 -97q2 1 39 22t63.5 30.5t61 16t67.5 6.5q70 0 127.5 -23
t127.5 -95.5t70 -246.5q0 -158 -101 -286zM633 532q-60 146 -207 146q-69 0 -112 -18.5t-67 -62.5t-24 -152q0 -70 14.5 -137.5t59.5 -170t174 -102.5q54 0 91 20.5t59.5 65.5t34.5 97t12 109q0 109 -35 205z" />
    <glyph glyph-name="eight" unicode="7" 
d="M800 1171v-30l-374 -1157h-113l349 1055h-376q-83 0 -122 -26q-31 -26 -91 -116l-30 14l69 171q5 11 14.5 37l19.5 52h654z" />
    <glyph glyph-name="nine" unicode="8" 
d="M175 735q-32 44 -47.5 89t-15.5 96q0 112 94 192t247 80q68 0 122 -18.5t96.5 -56.5t62 -80.5t19.5 -94.5q0 -53 -19.5 -97.5t-64 -85t-153.5 -105.5q143 -105 191 -167.5t64.5 -111t16.5 -101.5q0 -121 -69.5 -186t-131.5 -85.5t-142 -20.5q-72 0 -130.5 18t-134.5 79
t-76 187q0 107 45 163t83.5 87.5t98.5 72.5q-118 96 -156 146zM577 786q52 67 52 160q0 83 -49 140t-156 57q-40 0 -71 -11.5t-70 -49t-39 -112.5q0 -78 58 -150q30 -33 66.5 -62.5t94.5 -69.5q84 62 114 98zM603 85q51 56 51 138q0 95 -55 151q-23 27 -81 73.5t-138 104.5
q-74 -45 -99.5 -101.5t-34 -93.5t-8.5 -71q0 -59 14 -104.5t59.5 -98.5t141.5 -53q97 0 150 55z" />
    <glyph glyph-name="colon" unicode="9" 
d="M708 1039q104 -152 104 -337q0 -131 -36 -233t-70.5 -160t-87 -117.5t-121.5 -105t-160 -78t-231 -51.5l-9 37q48 10 79.5 19.5t69.5 25.5q53 19 95.5 44t83 64.5t76.5 87t64 104.5t44 98.5t24 78.5l-32 -23q-60 -44 -148 -67q-48 -10 -82 -10q-147 0 -232.5 103.5
t-85.5 249.5q0 189 102 306t261 117q188 0 292 -153zM560 530q32 14 50 27t23 28l4 63l4 89q0 179 -60.5 291.5t-176.5 112.5q-45 0 -78 -17.5t-72 -77t-39 -210.5q0 -127 49 -234t177 -107q29 0 59.5 8.5t59.5 26.5z" />
    <glyph glyph-name="semicolon" unicode=":" horiz-adv-x="408" 
d="M213 183q38 0 65 -28t27 -66q0 -36 -27.5 -63.5t-64.5 -27.5q-38 0 -64.5 26.5t-26.5 64.5q0 39 26.5 66.5t64.5 27.5zM213 682q38 0 65 -27t27 -64q0 -38 -27 -66t-65 -28t-64.5 27.5t-26.5 66.5q0 36 26.5 63.5t64.5 27.5z" />
    <glyph glyph-name="less" unicode=";" horiz-adv-x="2" 
d="M-646 1261q42 0 72 -30t30 -74q0 -41 -30 -71t-72 -30q-41 0 -72 30t-31 71q0 42 30 73t73 31z" />
    <glyph glyph-name="equal" unicode="&#x3c;" horiz-adv-x="964" 
d="M327 581q43 0 69 -33t26 -83q0 -49 -26.5 -83.5t-68.5 -34.5t-71 34t-29 84q0 49 28.5 82.5t71.5 33.5zM633 0h-150v818h-317v-818h-77v895h776v-77h-232v-818zM792 581q43 0 69 -33t26 -83q0 -49 -26.5 -83.5t-68.5 -34.5t-71 34t-29 84q0 49 28.5 82.5t71.5 33.5z" />
    <glyph glyph-name="greater" unicode="=" horiz-adv-x="1740" 
d="M1551 1210q-39 0 -63 -26t-24 -63q0 -40 25 -64t62 -24q35 0 60 26t25 64q0 35 -25 61t-60 26zM1350 895h317v-77h-142v-623v-35.5t1 -39.5q0 -135 -55 -252t-251.5 -208.5t-575.5 -91.5q-279 0 -413 59t-134 158q0 50 33.5 80.5t84.5 30.5q85 0 143 -12t105 -30v-89
q-18 9 -76 26t-95 17q-23 0 -35.5 -6.5t-12.5 -22.5q0 -32 20 -59t108.5 -50t268.5 -23q311 0 468 67t201 165t44 235l-2 704h-166q-100 0 -144.5 -50t-44.5 -153v-615h-157v650q1 7 1.5 15.5t0.5 18.5q0 53 -30 94.5t-112 41.5q-80 0 -101.5 -52.5t-21.5 -138.5v-629h-496
v895h173v-818h254v605q0 104 58.5 158.5t164.5 54.5q116 0 157 -48.5t60 -97.5q22 49 69 97.5t173 48.5h58q-31 31 -53 82t-22 109q0 100 73 187t226 87q141 0 211.5 -58.5t70.5 -140.5q0 -92 -51.5 -141.5t-151.5 -49.5q-65 0 -110.5 43.5t-45.5 107.5q0 38 10 61t26 36
q-71 0 -118.5 -46.5t-47.5 -117.5q0 -55 22.5 -94.5t62.5 -64.5z" />
    <glyph glyph-name="question" unicode="&#x3e;" horiz-adv-x="467" 
d="M309 -140q-31 -37 -64 -63.5t-70 -44.5l-19 35q84 46 112 99q34 57 34 91q0 10 -10 17l-14 4l-59 -8q-28 0 -67 22q-28 28 -28 69q0 34 26 69q21 31 79 31q56 0 87.5 -31.5t43 -61t11.5 -68.5q0 -42 -15.5 -81.5t-46.5 -78.5z" />
    <glyph glyph-name="at" unicode="?" horiz-adv-x="729" 
d="M538 12q-30 -30 -73 -30q-47 0 -77.5 31.5t-30.5 71.5q0 44 33 75q30 31 73 31t75 -31.5t32 -74.5q0 -40 -32 -73zM717 1248q97 -81 97 -229q0 -124 -112 -267t-161 -241t-62 -186h-32q0 19 2.5 44t9 69.5t21.5 94t57 145.5t53.5 129t20.5 68q12 36 17 68t5 66
q0 104 -50 185q-56 79 -169 79q-42 0 -71.5 -9.5t-70.5 -42t-41 -70.5q0 -17 39 -67q20 -23 30.5 -42.5t10.5 -38.5q0 -30 -24.5 -54.5t-57.5 -24.5q-37 0 -68 30t-31 100q0 51 20.5 96.5t86 113.5t234.5 68q150 0 246 -84z" />
    <glyph glyph-name="A" unicode="@" horiz-adv-x="408" 
d="M213 682q38 0 65 -27t27 -64q0 -38 -27 -66t-65 -28t-64.5 27.5t-26.5 66.5q0 36 26.5 63.5t64.5 27.5zM309 -140q-31 -37 -64 -63.5t-70 -44.5l-19 35q84 46 112 99q34 57 34 91q0 10 -10 17l-14 4l-59 -8q-28 0 -67 22q-28 28 -28 69q0 34 26 69q21 31 79 31
q56 0 87.5 -31.5t43 -61t11.5 -68.5q0 -42 -15.5 -81.5t-46.5 -78.5z" />
    <glyph glyph-name="B" unicode="A" horiz-adv-x="1407" 
d="M508 0v148q-24 -62 -80 -107t-140 -45q-100 0 -147.5 63.5t-62.5 150.5q-4 38 -7 76v609h77v-611q2 -72 25 -143.5t127 -71.5q66 0 112 59t75 139l21 70v558h150v-818h523v818h151v-1275h-151v380h-673z" />
    <glyph glyph-name="C" unicode="B" horiz-adv-x="1250" 
d="M753 830q143 0 238 -94t95 -231q0 -114 -54.5 -206t-187.5 -92q-116 0 -173.5 83t-57.5 177q0 93 50.5 172.5t152.5 79.5q-12 9 -39.5 15.5t-65.5 6.5q-88 0 -145.5 -78t-57.5 -206q0 -137 85 -246.5t187 -133.5h387v-77h-1076v895h153v-818h389q-26 11 -74 58t-87.5 129
t-39.5 187q0 188 93.5 283.5t227.5 95.5zM800 639q-47 -5 -77 -51t-30 -110q0 -14 4 -51t41 -81t86 -44h12q45 6 75 51.5t30 107.5q0 16 -3.5 52.5t-40.5 81.5t-85 45q-8 0 -12 -1z" />
    <glyph glyph-name="D" unicode="C" horiz-adv-x="2249" 
d="M1058 503q0 187 95.5 291.5t247.5 104.5q77 0 154 -27t95 -86v109h498v-75h-124v-633h-116v633h-197v-633h-111l-2 406q0 101 -63 169t-138 68q-144 0 -212 -87.5t-68 -208.5q29 54 71.5 75.5t80.5 21.5q84 0 137.5 -64.5t53.5 -152.5q0 -87 -47.5 -161t-151.5 -74
q-90 0 -146.5 93t-56.5 231zM479 199q-155 0 -195 -11.5t-40 -55.5v-53h1908v-79h-2061v99q0 91 62 131t308 40q153 0 244 72.5t91 238.5q0 155 -103 211.5t-212 56.5q-135 0 -201.5 -49.5t-84.5 -105.5q13 22 42 44.5t108 22.5q97 0 157 -52.5t60 -144.5q0 -83 -46 -148
t-161 -65q-103 0 -179.5 51.5t-76.5 198.5q0 148 111.5 235.5t276.5 87.5q96 0 197.5 -23.5t183.5 -99.5t82 -216q0 -210 -138 -298t-333 -88zM1234 540q-43 -4 -66.5 -41t-23.5 -87q0 -12 3.5 -41.5t35 -63t63.5 -33.5q39 0 67 33.5t28 92.5q0 13 -3 42t-32 63.5t-72 34.5z
M300 672q-55 0 -80 -40t-25 -88q0 -60 37.5 -91t72.5 -31q53 0 87.5 31.5t34.5 91.5q0 14 -4 40.5t-34.5 56.5t-88.5 30z" />
    <glyph glyph-name="E" unicode="D" horiz-adv-x="2030" 
d="M1480 371q0 221 -100 337t-241 116q-55 0 -103.5 -18t-63.5 -33q74 -62 115 -136t55.5 -137t14.5 -102q0 -199 -61.5 -302.5t-175.5 -103.5q-116 0 -171 111.5t-55 274.5q0 118 39 219t95 156q-32 24 -101 49.5t-161 25.5q-174 0 -295 -108t-121 -257l2 -49q6 42 61.5 95
t162.5 53q109 0 186 -76t77 -216q0 -105 -66.5 -192.5t-188.5 -87.5q-74 0 -143 38t-117.5 137.5t-48.5 272.5q0 181 138.5 325t350.5 144q137 0 214 -26.5t127 -62.5q44 35 114 61t146 26q206 0 336.5 -129.5t130.5 -391.5q0 -124 -26.5 -218t-55 -144.5t-56.5 -88.5h282
v962h155v-1037h-500q-45 -55 -143 -109.5t-253.5 -91.5t-360.5 -37q-258 0 -430.5 66t-172.5 156q0 45 21 68t76 23h1164q34 46 62 93.5t57 140.5t29 204zM319 461q-57 0 -93 -52.5t-36 -127.5q0 -16 1 -25q0 -76 44.5 -128.5t105.5 -52.5h12q57 0 93 53t36 128
q0 16 -4.5 59t-46 94.5t-100.5 51.5h-12zM773 384q0 -94 23.5 -186t98.5 -92q51 0 81.5 83t30.5 207q0 105 -31 181.5t-91 130.5q-62 -73 -87 -147.5t-25 -176.5zM276 -142q-32 0 -50.5 -7t-18.5 -34q0 -47 150.5 -87.5t312.5 -40.5q196 0 369.5 50.5t229.5 118.5h-993z" />
    <glyph glyph-name="F" unicode="E" horiz-adv-x="1484" 
d="M763 467q-62 0 -99.5 -30.5t-48.5 -85.5v-351h-148v818h-250v-818h-75v895h763v-77h-290v-345q25 33 73 54t130 21q124 0 203 -83t79 -246q0 -106 -19 -172.5t-46 -113.5h213v962h155v-1037h-412q-56 -91 -195.5 -164.5t-348.5 -73.5q-185 0 -296.5 67.5t-111.5 154.5
q0 45 21.5 68t75.5 23h753q31 52 47 128t16 160q0 128 -58 187t-131 59zM246 -142q-36 0 -54.5 -8t-18.5 -39q0 -59 78 -90.5t192 -31.5q174 0 260.5 48.5t143.5 120.5h-601z" />
    <glyph glyph-name="G" unicode="F" horiz-adv-x="1587" 
d="M1009 463v-142q0 -68 -28 -141.5t-101.5 -128.5t-199.5 -55q-165 0 -251 79t-86 213q0 110 65.5 172t125.5 74v361h765v-77h-290v-278h101q99 0 182.5 -31t142.5 -117.5t59 -237.5q0 -230 -168 -383t-532 -153q-338 0 -523.5 192t-185.5 503q0 146 44 260t112 191
t151 129l38 -67q-121 -68 -194.5 -200.5t-73.5 -314.5q0 -281 165.5 -450.5t462.5 -169.5q212 0 334.5 73.5t170 182t47.5 226.5q0 139 -55 214.5t-191 75.5h-87zM629 463q-90 0 -148.5 -49.5t-58.5 -137.5q0 -79 49 -135t152 -56q151 0 194.5 72t43.5 166v140h-232z
M611 818v-278h250v278h-250z" />
    <glyph glyph-name="H" unicode="G" horiz-adv-x="1098" 
d="M87 0v895h151v-818h623v818h150v-1275h-150v380h-774z" />
    <glyph glyph-name="I" unicode="H" horiz-adv-x="836" 
d="M530 0h-150v818h-212v-818h-77v895h684v-77h-245v-818zM412 1261q42 0 72 -30t30 -74q0 -41 -30 -71t-72 -30t-71.5 29.5t-29.5 71.5q0 43 29.5 73.5t71.5 30.5z" />
    <glyph glyph-name="J" unicode="I" horiz-adv-x="1575" 
d="M436 -302q157 0 222 87.5t65 165.5v138h191v-150q0 -102 55.5 -169.5t159.5 -67.5q92 0 138 42t46 136q0 55 -19.5 93.5t-65.5 38.5h-24v83h55q127 0 176 -61t49 -170q0 -117 -84 -181.5t-233 -64.5q-183 0 -266 68t-99 194q-34 -113 -119.5 -187.5t-235.5 -74.5
q-176 0 -274 75t-98 240q0 168 102 242.5t284 74.5h197t226 0.5t210 1.5q135 0 196.5 82t61.5 269q0 98 -57.5 153.5t-153.5 55.5q-116 0 -168.5 -101t-52.5 -197v-161h-185v104.5v86.5q0 163 -97.5 221.5t-201.5 58.5q-129 0 -191.5 -49.5t-84.5 -108.5q14 23 43 46t104 23
q93 0 152 -55t59 -152q0 -83 -47 -150.5t-105 -73t-72 -5.5q-88 0 -155.5 60.5t-67.5 206.5q0 156 107 246.5t263 90.5q100 0 177 -14.5t146.5 -67t98.5 -157.5q42 139 120 189t192 50q134 0 207 -58t96.5 -129t23.5 -131q0 -182 -91 -297t-315 -115h-625q-126 0 -191 -63.5
t-65 -178.5q0 -107 59 -170t162 -63zM262 635q-50 0 -72 -39t-22 -86q0 -62 34 -94t66 -32q49 0 80 30.5t31 90.5q-1 9 -1 14v9q-7 48 -35.5 77.5t-80.5 29.5z" />
    <glyph glyph-name="K" unicode="J" horiz-adv-x="1628" 
d="M1171 -67h213v962h155v-1037h-414q-62 -88 -221.5 -163t-375.5 -75q-218 0 -330.5 66t-112.5 156q0 44 22.5 67.5t77.5 23.5h840q27 45 44 96.5t17 165.5q0 131 -67.5 199.5t-151.5 68.5h-130v-142q0 -69 -28.5 -142t-102 -128t-200.5 -55q-164 0 -249.5 79t-85.5 213
q0 111 65 173t126 73v361h765v-77h-290v-278h142q177 0 267 -97t90 -224q0 -114 -18.5 -177t-46.5 -109zM292 -142q-34 0 -53.5 -8t-19.5 -39q0 -58 93.5 -90t211.5 -32q177 0 292.5 54t163.5 115h-688zM339 818v-278h248v278h-248zM355 463q-89 0 -147 -49.5t-58 -137.5
q0 -78 49 -134.5t152 -56.5q116 0 176 56t60 182v140h-232z" />
    <glyph glyph-name="L" unicode="K" horiz-adv-x="1904" 
d="M1322 105q407 0 407 360q0 164 -89 246t-179 82q-76 0 -107.5 -38t-31.5 -107v-543zM1318 0q0 -91 -48 -185t-180.5 -164.5t-364.5 -70.5q-292 0 -470.5 201t-178.5 500q0 222 83.5 385t211.5 236l52 -90q-100 -57 -171.5 -195.5t-71.5 -335.5q0 -262 149 -429.5
t396 -167.5q158 0 251.5 54t131.5 127.5t38 134.5h-491v896h175v-793h317v566q0 77 57 155t222 78q167 0 287 -113.5t120 -325.5q0 -194 -88 -296.5t-202.5 -134.5t-224.5 -32z" />
    <glyph glyph-name="M" unicode="L" horiz-adv-x="1271" 
d="M684 467q26 30 71 60.5t140 30.5q130 0 209 -104t79 -267q0 -102 -44.5 -221.5t-162.5 -209t-322 -89.5q-211 0 -340.5 113t-185 287.5t-55.5 370.5q0 207 54 385.5t177 292.5t319 114q256 0 376 -133.5t153 -312.5q6 -79 13 -157h-81q0 115 -36.5 220t-138.5 179
t-286 74q-121 0 -224 -50t-175 -197t-72 -410q0 -261 71.5 -412.5t177 -212t216.5 -60.5q167 0 282.5 116.5t115.5 316.5q0 152 -55.5 209t-121.5 57q-78 0 -108.5 -45t-45.5 -91v-321h-150v895h150v-428z" />
    <glyph glyph-name="N" unicode="M" horiz-adv-x="2026" 
d="M1561 319v576h150v-814q15 33 45.5 52t72.5 19q96 0 150.5 -56.5t54.5 -156.5q0 -172 -148 -258.5t-372 -86.5q-184 0 -292 59.5t-108 139.5q0 56 35.5 73.5t103.5 17.5q65 0 114.5 -21t94.5 -48l-4 -61q-39 25 -75.5 39t-77.5 14q-40 0 -56.5 -6t-16.5 -39
q0 -43 64.5 -74t207.5 -31q185 0 292.5 65t107.5 203q0 62 -23 98t-89 36q-32 0 -54.5 -23.5t-26.5 -67.5v-118h-150v390h-179q-28 -89 -83.5 -170t-202.5 -149.5t-404 -68.5q-235 0 -416 120.5t-181 260.5q0 60 24.5 73t91.5 13h1033q2 11 3 29.5t1 37.5q0 213 -111 332.5
t-307 119.5q-32 0 -85 -11t-61 -27q-1 -1 -1 -2l1 -2q28 8 59 8q69 0 131 -52.5t62 -142.5t-64.5 -150.5t-179.5 -60.5q-101 0 -156 62.5t-55 146.5q0 129 106 214.5t251 85.5q277 0 420 -149.5t143 -369.5l-2 -69h162zM668 719q-45 0 -77.5 -34.5t-32.5 -81.5q0 -48 33 -82
t77 -34q47 0 79.5 33.5t32.5 82.5q0 48 -33 82t-79 34zM708 -77q171 0 332 78.5t194 238.5h-1001q-16 0 -22 -8t-6 -35q0 -102 162 -188t341 -86z" />
    <glyph glyph-name="O" unicode="N" horiz-adv-x="1045" 
d="M662 75q-89 0 -153 74.5t-64 191.5q0 114 69 191t188 77q137 0 204.5 -86t67.5 -202q0 -118 -95.5 -220.5t-265.5 -102.5q-234 0 -389 164.5t-155 505.5t155 506.5t389 165.5q170 0 265.5 -102t95.5 -221q0 -117 -67 -202.5t-205 -85.5q-119 0 -188 76.5t-69 191.5
q0 117 63.5 191.5t153.5 74.5q-138 0 -236.5 -45t-159.5 -175t-61 -375t61 -374.5t159.5 -174t236.5 -44.5zM662 824q65 0 112.5 47.5t47.5 121.5q1 6 1 13v11q0 69 -35.5 117.5t-93.5 48.5q-5 1 -15 1q-60 0 -103.5 -48.5t-43.5 -118.5q0 -78 34 -132.5t96 -60.5zM662 514
q-62 -7 -96 -60.5t-34 -132.5q0 -71 44 -119t106 -48h12q58 0 93.5 48t35.5 119q0 16 -1 24q0 73 -47 121t-113 48z" />
    <glyph glyph-name="P" unicode="O" horiz-adv-x="1776" 
d="M396 893l38 -71q-130 -69 -188.5 -221t-58.5 -301q0 -151 78.5 -307.5t240 -262.5t392.5 -106q189 0 300.5 32t158 80t46.5 96q0 24 -33 36t-93 12q-29 0 -57 -4t-51 -10v-91h-150v225h-434v895h148v-818h286v591q0 76 59 155.5t223 79.5q172 0 288 -111.5t116 -324.5
q0 -197 -87.5 -300t-204.5 -135t-244 -32v-67q34 8 75.5 13t87.5 5q96 0 157.5 -27.5t61.5 -89.5q0 -65 -64.5 -130.5t-211 -111t-377.5 -45.5q-357 0 -572.5 228t-215.5 540q0 171 76.5 338t209.5 240zM1169 77q211 0 335 86t124 306q0 188 -89 271.5t-207 83.5
q-79 0 -121 -39t-42 -105v-603z" />
    <glyph glyph-name="Q" unicode="P" horiz-adv-x="5" 
d="M-245 823q-126 13 -203 74.5t-77 188.5q0 92 76 183t197 91q139 0 206 -61.5t67 -141.5q0 -89 -51 -138t-146 -49q-66 0 -112 44t-46 107q0 39 11 61.5t28 35.5q-57 -8 -97.5 -52.5t-40.5 -111.5q0 -80 65.5 -126.5t122.5 -53.5v-51zM-176 1210q-38 0 -62.5 -25.5
t-24.5 -63.5q0 -40 25 -64t62 -24q35 0 60.5 26.5t25.5 63.5q0 35 -26 61t-60 26z" />
    <glyph glyph-name="R" unicode="Q" horiz-adv-x="1764" 
d="M1076 0v816h-282q-156 0 -274 -104t-118 -249q-1 -11 -1 -17q0 -10 1 -18t2 -14q0 38 57.5 93t163.5 55q110 0 187 -76t77 -216q0 -105 -66.5 -192.5t-189.5 -87.5q-73 0 -141 37.5t-116.5 138t-48.5 272.5q0 181 130 319t341 138h566v-79h-140v-369q20 23 53.5 46
t100.5 23q134 0 220.5 -77.5t86.5 -263.5q0 -271 -235.5 -412t-578.5 -141q-279 0 -456.5 111t-256.5 288t-79 385q0 146 53.5 279t137.5 214l67 -48q-65 -64 -120 -188t-55 -257q0 -325 180 -513.5t531 -188.5q232 0 380 73.5t214 179t66 205.5q0 134 -53 192t-116 58
q-87 0 -110 -50t-30 -100v-262h-148zM568 461q-57 0 -92.5 -52t-35.5 -126q0 -18 4.5 -61.5t46 -95t100.5 -51.5h12q57 0 93 53t36 128q0 16 -1 24q0 76 -44.5 128.5t-106.5 52.5h-12z" />
    <glyph glyph-name="S" unicode="R" horiz-adv-x="1242" 
d="M339 818v-278h248v278h-248zM355 463q-89 0 -147 -49.5t-58 -137.5q0 -78 49 -134.5t152 -56.5q116 0 176 56t60 182v140h-232zM1082 463v-463h-150v463h-195v-142q0 -69 -28.5 -142t-102 -128t-200.5 -55q-164 0 -249.5 79t-85.5 213q0 111 65 173t126 73v361h765v-77
h-290v-278h424v-77h-79z" />
    <glyph glyph-name="T" unicode="S" horiz-adv-x="2172" 
d="M1730 552q42 27 89 27q117 0 196.5 -77t79.5 -283q0 -134 -99.5 -271.5t-319 -232.5t-551.5 -95q-499 0 -774.5 192t-275.5 582q0 174 41.5 288t131.5 217l61 -52q-85 -91 -122 -193.5t-37 -257.5q0 -367 256.5 -536t712.5 -169q436 0 635 158.5t199 418.5
q0 124 -39.5 170.5t-106.5 46.5q-51 0 -77 -26v-459h-151v818h-284v-818h-150v505q0 155 -95.5 237t-243.5 82q-142 0 -248.5 -107.5t-106.5 -253.5l2 -49q6 41 61 94.5t160 53.5q112 0 189 -75.5t77 -216.5q0 -105 -67 -192.5t-191 -87.5q-119 0 -211.5 99.5t-92.5 348.5
q0 183 130.5 328t340.5 145q145 0 246 -52t127 -114v150h646v-77h-138v-266zM619 461q-57 0 -93 -53t-36 -128q0 -16 1 -24q0 -76 44.5 -128.5t106.5 -52.5h12q56 0 92.5 53.5t36.5 127.5q0 16 -4.5 59.5t-46.5 94.5t-101 51h-12z" />
    <glyph glyph-name="U" unicode="T" horiz-adv-x="1480" 
d="M1232 895h150v-1277h-150v382h-511v45q90 77 129 157.5t39 221.5q0 160 -88 277t-277 117q-152 0 -263 -106t-111 -249l2 -49q6 43 55 95.5t146 52.5q124 0 204 -66t80 -198q1 -18 1 -27q0 -113 -69.5 -195t-188.5 -82q-73 0 -141 39t-116 140t-48 274q0 185 135.5 321.5
t333.5 136.5q205 0 352 -117t147 -360q0 -118 -49 -220.5t-93 -130.5h-4h335v818zM305 459q-58 -13 -85.5 -62.5t-27.5 -112.5q0 -23 8 -76t56.5 -93.5t95.5 -40.5q9 0 40 6t62 54t31 116q0 29 -6 59q-9 62 -47 107.5t-98 45.5q-14 0 -29 -3z" />
    <glyph glyph-name="V" unicode="U" horiz-adv-x="1451" 
d="M944 524q27 26 62 40.5t84 14.5q53 0 118 -30t115.5 -110t50.5 -220q0 -165 -60 -298.5t-206.5 -217t-392.5 -83.5q-296 0 -469 198.5t-173 488.5q0 150 39.5 260.5t100.5 185t142 136.5l41 -69q-111 -65 -180.5 -194.5t-69.5 -304.5q0 -279 152 -452.5t413 -173.5
q272 0 397.5 136t125.5 382q0 131 -52 201.5t-135 70.5q-38 0 -64 -16.5t-39 -42.5v-426h-150v818h-248v-818h-75v895h719v-77h-246v-294z" />
    <glyph glyph-name="W" unicode="V" horiz-adv-x="1171" 
d="M534 816q-156 0 -274 -104t-118 -249q-1 -11 -1 -17q0 -10 1 -18t2 -14q0 38 57.5 93t163.5 55q112 0 189 -75.5t77 -216.5q0 -104 -67.5 -192t-189.5 -88q-73 0 -141.5 38t-117 138t-48.5 272q0 181 130.5 319t340.5 138h566v-79h-140v-885l-434 -311h-89l375 386v810
h-282zM311 461q-57 0 -93 -52.5t-36 -127.5q0 -16 1 -25q0 -76 43.5 -128.5t104.5 -52.5h12q57 0 93 53t36 128q0 16 -1 24q0 76 -43.5 128.5t-104.5 52.5h-12z" />
    <glyph glyph-name="X" unicode="W" horiz-adv-x="1533" 
d="M1092 -67h201v962h154v-1037h-404q-74 -104 -221 -171t-375 -67q-185 0 -296.5 67.5t-111.5 154.5q0 45 21.5 68t75.5 23h810q22 37 42.5 109t20.5 179q0 98 -27.5 155.5t-96.5 57.5v74q55 8 85.5 49t30.5 113q0 57 -40.5 106.5t-130.5 49.5q-95 0 -142 -63.5t-47 -145.5
v-617h-150v587q0 113 -29.5 175t-118.5 62q-68 0 -106 -49.5t-38 -139.5v-635h-75v641q0 104 54 181t181 77q133 0 178 -52t64 -104l18 40q28 46 85.5 80t156.5 34q155 0 222.5 -71t67.5 -154q0 -137 -110 -193v-6q60 -30 88 -94.5t28 -161.5q0 -98 -19.5 -167t-45.5 -117z
M246 -142q-36 0 -54.5 -8t-18.5 -39q0 -59 78 -90.5t192 -31.5q181 0 287 49t165 120h-649z" />
    <glyph glyph-name="Y" unicode="X" horiz-adv-x="1324" 
d="M1246 434q0 -188 -69.5 -297t-228.5 -109q-58 0 -100 14t-60 45q0 -54 44.5 -84.5t145.5 -30.5h128v-104h-87q-27 0 -45 -24t-22 -51q-26 -109 -84.5 -171.5t-260.5 -62.5q-176 0 -249.5 61t-73.5 155q0 55 46.5 112.5t154.5 57.5q130 0 184 -63.5t54 -129.5h-90
q0 47 -27 82.5t-121 35.5q-59 0 -87.5 -31.5t-28.5 -69.5q0 -59 41 -94.5t140 -35.5q139 0 187 59l50 120t112 74q-106 21 -149.5 84.5t-43.5 208.5q0 102 21 157.5t75 148.5l61 -24q-36 -47 -58.5 -111t-22.5 -112q0 -47 22.5 -86.5t76.5 -39.5q113 0 165 69.5t52 238.5
q0 174 -122.5 286t-362.5 112q-178 0 -283 -68t-146.5 -167.5t-41.5 -206.5q0 -113 25.5 -165t57.5 -73q-30 44 -30 122q0 100 51 164.5t146 64.5q107 0 153 -76.5t46 -164.5q0 -105 -57 -179.5t-177 -74.5q-117 0 -201.5 100t-84.5 269q0 263 156 401.5t419 138.5
q281 0 440.5 -136t159.5 -339zM378 396q-45 0 -75.5 -40.5t-30.5 -101.5q0 -58 31 -99t75 -41q43 0 74 41t31 99q0 61 -30.5 101.5t-74.5 40.5z" />
    <glyph glyph-name="Z" unicode="Y" horiz-adv-x="1799" 
d="M1218 6v-73h349v962h154v-1037h-548q-51 -81 -246 -159.5t-415 -78.5q-218 0 -329.5 66t-111.5 156q0 45 21 68t76 23h904v63q-139 15 -207.5 116t-68.5 302l-2 94q0 142 -92 224t-245 82q-123 0 -215 -97.5t-92 -253.5l2 -49q6 43 55 95.5t146 52.5q124 0 204 -66
t80 -198q1 -22 1 -33q0 -114 -68 -194.5t-201 -80.5q-115 0 -204.5 103.5t-89.5 353.5q0 187 114 320.5t292 133.5q223 0 341 -110t118 -292l4 -87q0 -181 35 -258t152 -77q120 0 177.5 120.5t57.5 277.5q0 102 -27 172t-63.5 103t-125 56.5t-88.5 100.5q0 25 17 38.5
t41 13.5q18 0 108 -49t154.5 -170t64.5 -265q0 -172 -60 -300.5t-169 -168.5zM276 -142q-33 0 -52 -8t-19 -39q0 -58 93 -90t212 -32q179 0 327.5 56.5t191.5 112.5h-753zM305 459q-58 -13 -85.5 -62.5t-27.5 -112.5q0 -23 8 -76t56.5 -93.5t95.5 -40.5q9 0 40 6t62 54
t31 116q0 29 -6 59q-9 62 -47 107.5t-98 45.5q-14 0 -29 -3z" />
    <glyph glyph-name="bracketleft" unicode="Z" horiz-adv-x="2479" 
d="M1518 775q80 -68 127.5 -170t47.5 -207q0 -198 -62.5 -302t-174.5 -104q-116 0 -172 112t-56 274q0 118 43 225.5t99 155.5q-25 18 -81.5 39.5t-115.5 21.5q-56 0 -103.5 -8.5t-91.5 -40.5q81 -68 130 -168.5t49 -204.5q0 -199 -61.5 -302.5t-175.5 -103.5
q-116 0 -172 112t-56 274q0 119 40 223t96 152q-32 24 -101 49.5t-161 25.5q-174 0 -295 -108t-121 -257l2 -49q6 42 61.5 95t162.5 53q109 0 186 -76t77 -216q0 -105 -66.5 -192.5t-188.5 -87.5q-74 0 -143 38t-117.5 137.5t-48.5 272.5q0 181 138.5 325t350.5 144
q135 0 216 -26.5t127 -60.5q121 83 283 83q73 0 152.5 -27.5t102.5 -51.5q38 32 103.5 50.5t138.5 18.5q171 0 297.5 -126.5t126.5 -382.5q0 -123 -26 -216t-58 -150t-56 -85h284v962h155v-1037h-502q-105 -86 -211 -134.5t-300 -76t-526 -27.5q-310 0 -556 66.5t-246 177.5
q0 43 19 56t78 13h1643q27 33 60 89.5t60.5 146t27.5 202.5q0 216 -94 326.5t-209 110.5q-55 0 -86.5 -10t-49.5 -23zM773 384q0 -94 23.5 -186t98.5 -92q51 0 81.5 83t30.5 207q0 105 -31 181.5t-91 130.5q-62 -73 -87 -147.5t-25 -176.5zM1307 384q0 -91 24.5 -184.5
t97.5 -93.5q51 0 82.5 83.5t31.5 206.5q0 104 -30 186t-88 131q-64 -72 -91 -150.5t-27 -178.5zM319 461q-57 0 -93 -52.5t-36 -127.5q0 -16 1 -25q0 -76 44.5 -128.5t105.5 -52.5h12q57 0 93 53t36 128q0 16 -4.5 59t-46 94.5t-100.5 51.5h-12zM274 -142q-31 0 -48 -6.5
t-17 -30.5q0 -41 208 -86.5t452 -45.5q264 0 430 21t262.5 57t170.5 91h-1458z" />
    <glyph glyph-name="backslash" unicode="[" horiz-adv-x="1583" 
d="M1175 903q133 0 205.5 -57.5t97 -130t24.5 -130.5q0 -182 -91 -297t-315 -115h-625q-126 0 -191 -63.5t-65 -178.5q0 -97 53 -165t187 -68q120 0 191 45.5t122 170.5t150 163.5t227 38.5q167 0 257 -52t90 -194q0 -127 -88.5 -188.5t-217.5 -61.5q-144 0 -214.5 67.5
t-70.5 176.5q0 30 10.5 60t26.5 50l89 4q-21 -36 -28.5 -57.5t-7.5 -60.5q0 -68 43 -116.5t137 -48.5q81 0 125 39t44 134q0 68 -45.5 118.5t-159.5 50.5q-111 0 -183 -34.5t-116.5 -150t-110.5 -162.5t-142.5 -59.5t-172.5 -12.5q-186 0 -260.5 94.5t-74.5 210.5
q0 176 101 251.5t285 75.5h197t226 0.5t210 1.5q135 0 195.5 81.5t60.5 267.5q0 73 -42.5 142t-166.5 69q-116 0 -168.5 -101t-52.5 -197v-161h-187v191q0 163 -96.5 221.5t-200.5 58.5q-129 0 -191.5 -49.5t-84.5 -108.5q14 23 43 46t104 23q93 0 152 -55t59 -152
q0 -83 -47 -150.5t-105 -73t-72 -5.5q-88 0 -155.5 60.5t-67.5 206.5q0 156 107 246.5t263 90.5q100 0 177 -14.5t146.5 -67t98.5 -157.5q42 139 120 189t192 50zM262 635q-50 0 -72 -39t-22 -86q0 -62 34 -94t66 -32q49 0 80 30.5t31 90.5q-1 9 -1 14v9q-7 47 -33 77
t-71 30h-12z" />
    <glyph glyph-name="bracketright" unicode="\" horiz-adv-x="2012" 
d="M1508 77l57 140q-17 -6 -43 -6q-115 0 -227 88t-112 265q0 175 100.5 250t247.5 75q45 0 117 -27.5t132 -95.5t60 -180q0 -46 -10.5 -98t-34.5 -112q20 7 61 34.5l79 54.5v-465h-303l-160 -380h-157l161 380h-788q96 76 138.5 173t42.5 251q0 161 -86.5 277.5
t-272.5 116.5q-150 0 -255 -105t-105 -250l2 -49q6 43 55 95.5t146 52.5q124 0 204 -66t80 -198v-15.5t1 -14.5q0 -112 -68 -195t-186 -83q-73 0 -142.5 40t-118 141.5t-48.5 275.5q0 182 136 320t315 138q243 0 370 -139t127 -330q0 -102 -38 -210.5t-100 -148.5h623z
M1665 77h182v238l-107 -51zM305 459q-58 -13 -85.5 -62.5t-27.5 -112.5q0 -23 8 -76t56.5 -93.5t95.5 -40.5q9 0 40 6t62 54t31 116q0 29 -6 59q-9 62 -47 107.5t-98 45.5q-14 0 -29 -3zM1265 552q0 -126 76.5 -194t173.5 -68q46 0 85 17l71 182q6 16 9.5 40.5t3.5 45.5
q0 90 -50 155.5t-181 65.5q-64 0 -126 -53.5t-62 -190.5z" />
    <glyph glyph-name="asciicircum" unicode="]" horiz-adv-x="2030" 
d="M1630 -14q-74 0 -145.5 23t-134.5 118.5t-63 288.5v30t1 43q0 71 -4.5 135t-28.5 126t-120 62q-74 0 -115.5 -72.5t-41.5 -207.5v-15.5v-6.5v-512h-158v514q0 139 -82.5 225.5t-232.5 86.5q-151 0 -253 -106t-102 -255l2 -49q6 42 61.5 95t162.5 53q109 0 186 -76
t77 -216q0 -105 -66.5 -192.5t-188.5 -87.5q-73 0 -141.5 38t-117 138t-48.5 272q0 183 131 328t340 145q160 0 251 -61t125 -146q7 25 15 50q24 59 77.5 102t148.5 43q124 0 185 -55.5t78 -141.5t17 -219v-99q0 -178 67 -236.5t155 -58.5q100 0 156.5 119.5t56.5 252.5
q0 127 -35.5 195.5t-63 93t-120 47t-92.5 98.5q0 25 17.5 38.5t41.5 13.5q18 0 106.5 -49t153.5 -171t65 -264q0 -209 -83 -343t-240 -134zM319 461q-57 0 -93 -52.5t-36 -127.5q0 -16 1 -25q0 -76 44.5 -128.5t105.5 -52.5h12q57 0 93 53t36 128q0 16 -4.5 59t-46 94.5
t-100.5 51.5h-12z" />
    <glyph glyph-name="underscore" unicode="^" horiz-adv-x="1271" 
d="M623 1112q-119 0 -222.5 -53t-176 -203t-72.5 -413q0 -261 71.5 -412.5t177 -212t216.5 -60.5q167 0 282.5 116.5t115.5 316.5q0 152 -55.5 209t-121.5 57q-78 0 -108.5 -45t-45.5 -91v-321h-150v895h150v-428q26 30 71 60.5t140 30.5q130 0 209 -104t79 -267
q0 -102 -44.5 -221.5t-162.5 -209t-322 -89.5q-211 0 -340.5 113t-185 287.5t-55.5 370.5q0 207 54 385.5t177 292.5t319 114q237 0 376.5 -112t139.5 -280q0 -92 -43 -148.5t-113 -56.5q-75 0 -117 50t-50 133q0 93 30.5 149.5t77.5 67.5q-38 33 -115.5 56t-185.5 23z
M922 834q6 -46 28.5 -74t50.5 -23q24 5 39 30t15 61q0 13 -3 27q-5 42 -29 70t-51 25q-24 -5 -38 -30t-14 -62v-12q2 -8 2 -12z" />
    <glyph glyph-name="grave" unicode="_" horiz-adv-x="624" 
d="M236 887q45 10 69 10q129 0 212 -63.5t83 -185.5q0 -129 -77 -208t-273 -79v73q120 0 196.5 54t76.5 153q0 70 -31 109.5t-81 49.5q17 -30 22.5 -55.5t5.5 -54.5q0 -60 -50 -118t-149 -58q-70 0 -126 52t-56 122q0 32 5.5 51.5t20.5 56.5h-164v99h199q27 0 53.5 -0.5
t63.5 -7.5zM226 794q-36 0 -55.5 -31t-19.5 -67t16.5 -66.5t50.5 -30.5q37 0 57 28.5t20 70.5q0 38 -15.5 67t-53.5 29z" />
    <glyph glyph-name="a" unicode="`" horiz-adv-x="2304" 
d="M1188 77v564q0 104 54 181t181 77q96 0 149.5 -34t78.5 -81l16 -41l18 40q28 46 85 80t156 34q156 0 223.5 -71t67.5 -154q0 -71 -27.5 -117.5t-84.5 -75.5v-6q59 -30 88.5 -96t29.5 -160q0 -97 -36.5 -189t-137 -157.5t-277.5 -65.5h-1254q-116 0 -169 -7.5t-53 -37.5
q0 -13 12.5 -32.5t12.5 -44.5q0 -29 -21 -56t-67 -27q-53 0 -79 35.5t-26 94.5q0 80 61 116t207 36h1352q172 0 248.5 87t76.5 252q0 99 -27 156t-95 57v74q55 8 84.5 48.5t29.5 113.5q0 58 -39.5 107t-131.5 49q-93 0 -141 -64t-48 -145v-617h-148v587q0 113 -29.5 175
t-118.5 62q-69 0 -106.5 -49.5t-37.5 -139.5v-635h-544v45q90 77 129 157.5t39 221.5q0 160 -88 277t-277 117q-152 0 -263 -106t-111 -249l2 -49q6 43 55 95.5t146 52.5q124 0 204 -66t80 -198q1 -18 1 -27q0 -113 -69.5 -195t-188.5 -82q-73 0 -141 39t-116 140t-48 274
q0 185 135.5 321.5t333.5 136.5q205 0 352 -117t147 -360q0 -118 -49 -220.5t-93 -130.5h-4h291zM305 459q-58 -13 -85.5 -62.5t-27.5 -112.5q0 -23 8 -76t56.5 -93.5t95.5 -40.5q9 0 40 6t62 54t31 116q0 29 -6 59q-9 62 -47 107.5t-98 45.5q-14 0 -29 -3z" />
    <glyph glyph-name="b" unicode="a" horiz-adv-x="1460" 
d="M528 0v148q-24 -62 -80 -107t-139 -45q-100 0 -149 64.5t-63 149.5l-6 76v609h77v-611q2 -72 25 -143.5t128 -71.5q65 0 111.5 60t74.5 138l21 70v558h150v-818h522v818h150v-895h-822z" />
    <glyph glyph-name="c" unicode="b" horiz-adv-x="1242" 
d="M735 -380h-148l162 380h-658v895h153v-818h391q-70 39 -137.5 136.5t-67.5 235.5q0 187 86.5 282t210.5 95q141 0 239 -82t98 -239q0 -64 -16.5 -133t-54.5 -153l-63 -142h237v-77h-270zM903 363q12 28 20 66t8 74q0 99 -54 166.5t-173 67.5q-79 0 -137.5 -75.5
t-58.5 -223.5q0 -102 51 -182t117 -126t108 -51z" />
    <glyph glyph-name="d" unicode="c" horiz-adv-x="2075" 
d="M463 201q-155 0 -196.5 -12t-41.5 -57v-53h1764v-79h-1916v99q0 91 62 131t308 40q152 0 243 72.5t91 238.5q0 155 -102 211.5t-210 56.5q-136 0 -203 -49t-85 -106q14 22 43.5 44.5t108.5 22.5q96 0 155.5 -52.5t59.5 -144.5q0 -83 -46 -148t-161 -65q-103 0 -179.5 52
t-76.5 200q0 147 112.5 234t275.5 87q95 0 197.5 -23.5t185 -99.5t82.5 -216q0 -211 -138 -297.5t-333 -86.5zM282 672q-53 0 -79 -40.5t-26 -87.5q0 -60 38 -91t71 -31q53 0 88 32t35 91q0 14 -3 40.5t-34.5 56.5t-89.5 30z" />
    <glyph glyph-name="e" unicode="d" horiz-adv-x="1612" 
d="M566 828q-174 0 -295 -108t-121 -257l2 -49q6 42 61.5 95t162.5 53q109 0 186 -76t77 -216q0 -105 -66.5 -192.5t-188.5 -87.5q-74 0 -143 38t-117.5 137.5t-48.5 272.5q0 181 138.5 325t350.5 144q135 0 216 -26.5t127 -60.5q59 41 138.5 58t200.5 17h323v-77h-140v-818
h-150v818h-65q-79 0 -141 -11.5t-95 -35.5q81 -68 130 -168.5t49 -204.5q0 -199 -61.5 -302.5t-175.5 -103.5q-116 0 -172 112t-56 274q0 119 40 223t96 152q-32 24 -101 49.5t-161 25.5zM773 384q0 -94 23.5 -186t98.5 -92q51 0 81.5 83t30.5 207q0 105 -31 181.5
t-91 130.5q-62 -73 -87 -147.5t-25 -176.5zM319 461q-57 0 -93 -52.5t-36 -127.5q0 -16 1 -25q0 -76 44.5 -128.5t105.5 -52.5h12q57 0 93 53t36 128q0 16 -4.5 59t-46 94.5t-100.5 51.5h-12z" />
    <glyph glyph-name="f" unicode="e" horiz-adv-x="1145" 
d="M456 -195q-116 0 -169 -7.5t-53 -37.5q0 -13 12.5 -32.5t12.5 -44.5q0 -29 -21 -56t-67 -27q-53 0 -79 35.5t-26 94.5q0 80 61 116t207 36h251q165 0 255.5 91.5t90.5 247.5q0 127 -64 186.5t-139 59.5q-62 0 -100 -31t-49 -85v-351h-150v818h-248v-818h-77v895h801v-77
h-326v-345q25 33 73 54t130 21q127 0 212 -83.5t85 -245.5q0 -208 -142 -311t-337 -103h-144z" />
    <glyph glyph-name="g" unicode="f" horiz-adv-x="1299" 
d="M262 534v361h800v-77h-325v-278h166q170 0 247.5 -69t77.5 -187q0 -108 -58 -171.5t-133.5 -88t-133.5 -24.5q-80 0 -144.5 18.5t-114.5 68.5q-35 -30 -90 -60.5t-148 -30.5q-164 0 -249.5 79t-85.5 213q0 111 65 173t126 73zM355 463q-89 0 -147 -49.5t-58 -137.5
q0 -78 49 -134.5t152 -56.5q116 0 176 56t60 182v140h-232zM737 463v-128q0 -68 -15.5 -118t-31.5 -73q19 -27 66.5 -48t94.5 -21q85 0 156 47t71 160q0 102 -60.5 141.5t-148.5 39.5h-132zM339 818v-278h248v278h-248z" />
    <glyph glyph-name="h" unicode="g" horiz-adv-x="1115" 
d="M87 0v895h151v-818h623v818h150v-895h-924z" />
    <glyph glyph-name="i" unicode="h" horiz-adv-x="836" 
d="M564 0h-150v818h-248v-818h-77v895h684v-77h-209v-818z" />
    <glyph glyph-name="j" unicode="i" horiz-adv-x="1675" 
d="M1165 905q196 0 318.5 -118.5t122.5 -331.5q0 -212 -73.5 -315t-145 -128.5t-93.5 -25.5q-24 0 -39 8.5t-15 27.5q0 39 34 44.5t72 22.5t74 122t36 246q0 170 -96 268.5t-221 98.5q-55 0 -103.5 -18t-63.5 -33q74 -62 115 -136t55.5 -137t14.5 -102q0 -199 -61.5 -302.5
t-175.5 -103.5q-116 0 -171 111.5t-55 274.5q0 118 39 219t95 156q-32 24 -101 49.5t-161 25.5q-174 0 -295 -108t-121 -257l2 -49q6 42 61.5 95t162.5 53q109 0 186 -76t77 -216q0 -105 -66.5 -192.5t-188.5 -87.5q-74 0 -143 38t-117.5 137.5t-48.5 272.5q0 181 138.5 325
t350.5 144q137 0 214 -26.5t127 -62.5q44 35 114 61t146 26zM319 461q-57 0 -93 -52.5t-36 -127.5q0 -16 1 -25q0 -76 44.5 -128.5t105.5 -52.5h12q57 0 93 53t36 128q0 16 -4.5 59t-46 94.5t-100.5 51.5h-12zM773 384q0 -94 23.5 -186t98.5 -92q51 0 81.5 83t30.5 207
q0 105 -31 181.5t-91 130.5q-62 -73 -87 -147.5t-25 -176.5z" />
    <glyph glyph-name="k" unicode="j" horiz-adv-x="1313" 
d="M1258 219q0 -209 -142 -311.5t-347 -102.5h-286q-115 0 -168 -7.5t-53 -37.5q0 -13 13 -32t13 -45q0 -30 -20.5 -56.5t-68.5 -26.5q-52 0 -79 36t-27 94q0 80 61 116t207 36h406q178 0 259.5 98t81.5 241q0 128 -65 185t-152 57h-132v-142q0 -69 -28.5 -142t-102 -128
t-200.5 -55q-164 0 -249.5 79t-85.5 213q0 111 65 173t126 73v361h800v-77h-325v-278h166q169 0 251 -89.5t82 -231.5zM361 818v-278h248v278h-248zM377 463q-89 0 -147 -49.5t-58 -137.5q0 -78 49 -134.5t152 -56.5q116 0 176 56t60 182v140h-232z" />
    <glyph glyph-name="l" unicode="k" horiz-adv-x="1293" 
d="M112 0v895h150v-818h325v603q0 72 61.5 152.5t220.5 80.5q153 0 258 -114.5t105 -331.5q0 -194 -88 -298t-198 -136.5t-211 -32.5h-623zM737 77q173 0 295.5 88t122.5 304q0 186 -77.5 275.5t-178.5 89.5q-78 0 -120 -39t-42 -105v-613z" />
    <glyph glyph-name="m" unicode="l" horiz-adv-x="1242" 
d="M1139 77v-77h-1052v895h151v-818h901z" />
    <glyph glyph-name="n" unicode="m" horiz-adv-x="1792" 
d="M1711 -148h-150v388h-179q-26 -87 -81.5 -168.5t-203.5 -150.5t-405 -69q-235 0 -416 120.5t-181 260.5q0 60 24.5 73t91.5 13h1033q2 11 3 29.5t1 37.5q0 213 -111 332.5t-307 119.5q-32 0 -85 -11t-61 -27q-1 -1 -1 -2l1 -2q8 4 26 6t33 2q69 0 131 -52t62 -143
q0 -90 -64.5 -150.5t-179.5 -60.5q-101 0 -156 62.5t-55 146.5q0 129 106 214.5t251 85.5q277 0 421 -149.5t144 -369.5q0 -16 -1.5 -33t-2.5 -36h162v576h152zM670 719q-47 0 -79.5 -33.5t-32.5 -82.5q0 -48 33 -82t79 -34q45 0 77.5 34.5t32.5 81.5q0 48 -33 82t-77 34z
M708 -77q171 0 332 78.5t194 238.5h-1001q-16 0 -22 -8t-6 -35q0 -102 162 -188t341 -86z" />
    <glyph glyph-name="o" unicode="n" horiz-adv-x="1218" 
d="M79 678q0 231 87.5 376.5t217.5 210.5t257 65q229 0 367.5 -167t138.5 -475v-688h-77v648q0 144 -33 276t-127.5 225t-265.5 93q-206 0 -317.5 -172t-111.5 -384q0 -250 52 -384t140.5 -179.5t223.5 -45.5q-88 0 -152.5 76t-64.5 194q0 116 70 195t188 79
q137 0 207.5 -88.5t70.5 -205.5q0 -120 -92.5 -222.5t-260.5 -102.5q-236 0 -377 156.5t-141 519.5zM631 524q-58 -5 -93.5 -54t-35.5 -119q0 -16 4 -57t45.5 -89.5t100.5 -48.5h12q62 6 96 61.5t34 135.5q0 73 -44 122t-107 49h-12z" />
    <glyph glyph-name="p" unicode="o" horiz-adv-x="1290" 
d="M737 77q173 0 295.5 88t122.5 304q0 183 -79 274t-177 91q-78 0 -120 -39t-42 -105v-613zM737 0v-22q0 -43 52 -74.5t149 -31.5h114v-101h-128q-80 0 -145.5 -37.5l-128.5 -74.5q-89 -39 -218 -39q-115 0 -198.5 52t-83.5 155q0 34 25 71t65 37q30 0 49.5 -8.5
t19.5 -32.5q0 -40 -41 -48t-41 -35q0 -58 57 -84.5t134 -26.5q112 0 179 70t130 70q-68 11 -104 38t-36 98v24h-475v895h150v-818h325v601q0 105 79 170t203 65q150 0 256.5 -114t106.5 -332q0 -193 -87 -297t-198 -137t-210 -33z" />
    <glyph glyph-name="q" unicode="p" horiz-adv-x="267" 
d="M-252 823q-122 21 -182 82t-60 169q0 110 78.5 199t217.5 89q179 0 248 -103t69 -279v-980h-67v954q0 111 -52.5 187.5t-195.5 76.5q-97 0 -154 -49.5t-57 -121.5q0 -77 44 -119t111 -54v-51z" />
    <glyph glyph-name="r" unicode="q" horiz-adv-x="1415" 
d="M942 77h237v818h151v-895h-918v77h299q97 0 140.5 63.5t43.5 164.5q0 122 -53 165.5t-131 43.5q-61 0 -99 -30.5t-50 -83.5v-181h-150v599h-248v-818h-75v895h764v-77h-291v-296q26 34 73.5 54.5t129.5 20.5q122 0 201 -73.5t79 -200.5q0 -91 -28 -157.5t-75 -88.5z" />
    <glyph glyph-name="s" unicode="r" horiz-adv-x="1121" 
d="M1027 895v-77h-290v-278h262v-77h-262v-142q0 -69 -28.5 -142t-102 -128t-200.5 -55q-164 0 -249.5 79t-85.5 213q0 111 65 173t126 73v361h765zM339 818v-278h248v278h-248zM355 463q-89 0 -147 -49.5t-58 -137.5q0 -78 49 -134.5t152 -56.5q116 0 176 56t60 182v140
h-232z" />
    <glyph glyph-name="t" unicode="s" horiz-adv-x="1624" 
d="M922 745v150h647v-77h-140v-818h-150v818h-284v-818h-148v505q0 154 -97 236.5t-245 82.5q-139 0 -247 -108t-108 -253l2 -49q6 42 61.5 95t162.5 53q109 0 186 -76t77 -216q0 -105 -66.5 -192.5t-188.5 -87.5q-73 0 -141.5 38t-117 138t-48.5 272q0 183 131 328t340 145
q145 0 246 -52t128 -114zM319 461q-57 0 -93 -52.5t-36 -127.5q0 -16 1 -25q0 -76 44.5 -128.5t105.5 -52.5h12q57 0 93 53t36 128q0 16 -4.5 59t-46 94.5t-100.5 51.5h-12z" />
    <glyph glyph-name="u" unicode="t" horiz-adv-x="1509" 
d="M1232 895h150v-895h-661v45q90 77 129 157.5t39 221.5q0 160 -88 277t-277 117q-152 0 -263 -106t-111 -249l2 -49q6 43 55 95.5t146 52.5q122 0 203 -70.5t81 -201.5q0 -127 -65.5 -211.5t-191.5 -84.5q-73 0 -141 39t-116 140t-48 274q0 185 135.5 321.5t333.5 136.5
q205 0 352 -117t147 -360q0 -118 -49 -220.5t-93 -130.5h-4h335v818zM305 459q-58 -13 -85.5 -62.5t-27.5 -112.5q0 -23 8 -76t56.5 -93.5t95.5 -40.5q9 0 40 6t62 54t31 116q0 29 -6 59q-9 62 -47 107.5t-98 45.5q-14 0 -29 -3z" />
    <glyph glyph-name="v" unicode="u" horiz-adv-x="855" 
d="M564 -69l-471 -315v75l321 309v818h-248v-818h-77v895h684v-77h-209v-887z" />
    <glyph glyph-name="w" unicode="v" horiz-adv-x="1171" 
d="M544 816q-158 0 -276 -104t-118 -249l2 -49q6 42 61.5 95t162.5 53q109 0 186 -76t77 -216q0 -105 -66.5 -192.5t-188.5 -87.5q-73 0 -141.5 38t-117 138t-48.5 272q0 182 130 319.5t341 137.5h566v-79h-140v-816h-150v816h-280zM319 461q-57 0 -93 -52.5t-36 -127.5
q0 -16 1 -25q0 -76 44.5 -128.5t105.5 -52.5h12q57 0 93 53t36 128q0 16 -4.5 59t-46 94.5t-100.5 51.5h-12z" />
    <glyph glyph-name="x" unicode="w" horiz-adv-x="1192" 
d="M635 -118q174 0 250.5 87t76.5 252q0 100 -27 156.5t-97 56.5v74q55 8 85.5 49t30.5 113q0 58 -39.5 107t-130.5 49q-95 0 -142 -63.5t-47 -145.5v-617h-150v587q0 115 -28.5 176t-118.5 61q-70 0 -108 -49t-38 -140v-635h-75v641q0 104 54 181t182 77q96 0 149 -34
t77 -81q7 -21 15 -41l18 40q28 46 86 80t156 34q157 0 224.5 -71t67.5 -154q0 -70 -27.5 -117.5t-83.5 -75.5v-6q59 -30 88 -95t29 -161q0 -98 -37 -189.5t-137 -157t-276 -65.5h-256q-96 0 -158.5 -4.5t-62.5 -40.5q0 -13 12 -32t12 -45q0 -31 -19.5 -57t-67.5 -26
q-52 0 -79 36t-27 94q0 80 61 116t207 36h351z" />
    <glyph glyph-name="y" unicode="x" horiz-adv-x="1320" 
d="M1246 441q0 -189 -69.5 -297.5t-228.5 -108.5q-57 0 -100 14t-60 44q0 -54 44.5 -83.5t145.5 -29.5h128v-106h-87q-27 0 -45 -24t-22 -49q-25 -110 -84 -172.5t-261 -62.5q-177 0 -254 72.5t-77 184.5q0 10 9 35t15 34h78q-8 -8 -15.5 -32t-7.5 -35q0 -77 48 -128.5
t147 -51.5q139 0 187 59l50 120t112 74q-106 21 -149.5 85t-43.5 210q0 102 21.5 157.5t74.5 146.5l61 -24q-36 -47 -58.5 -111t-22.5 -112q0 -47 22.5 -86.5t76.5 -39.5q113 0 165 69.5t52 238.5q0 174 -122.5 287t-362.5 113q-179 0 -283.5 -68t-146 -168.5t-41.5 -207.5
q0 -111 26 -164t57 -74q-30 44 -30 122q0 100 51 164.5t146 64.5q108 0 153.5 -76t45.5 -163q0 -107 -57 -181.5t-177 -74.5q-116 0 -201 100.5t-85 269.5q0 263 156 402.5t419 139.5q281 0 440.5 -137t159.5 -340zM378 402q-45 0 -75.5 -40.5t-30.5 -99.5q0 -58 31 -100
t75 -42q43 0 74 42t31 100q0 60 -30 100t-75 40z" />
    <glyph glyph-name="z" unicode="y" horiz-adv-x="1520" 
d="M1250 773q-11 10 -99.5 33.5t-88.5 100.5q0 25 17 38.5t41 13.5q18 0 108 -49t154.5 -170t64.5 -265q0 -207 -84.5 -345t-229.5 -138q-172 0 -254.5 100.5t-82.5 321.5l-2 94q0 142 -92 224t-245 82q-123 0 -215 -97.5t-92 -253.5l2 -49q6 43 55 95.5t146 52.5
q124 0 204 -66t80 -198q1 -22 1 -33q0 -114 -68 -194.5t-201 -80.5q-115 0 -204.5 103.5t-89.5 353.5q0 187 114 320.5t292 133.5q223 0 341 -110t118 -292l4 -87q0 -181 35 -258t152 -77q120 0 177.5 120.5t57.5 277.5q0 98 -28 171t-88 127zM305 459q-58 -13 -85.5 -62.5
t-27.5 -112.5q0 -23 8 -76t56.5 -93.5t95.5 -40.5q9 0 40 6t62 54t31 116q0 29 -6 59q-9 62 -47 107.5t-98 45.5q-14 0 -29 -3z" />
    <glyph glyph-name="braceleft" unicode="z" horiz-adv-x="2168" 
d="M1173 820q-56 0 -103.5 -8.5t-91.5 -40.5q81 -68 130 -168.5t49 -204.5q0 -199 -61.5 -302.5t-175.5 -103.5q-116 0 -172 112t-56 274q0 119 40 223t96 152q-32 24 -101 49.5t-161 25.5q-174 0 -295 -108t-121 -257l2 -49q6 42 61.5 95t162.5 53q109 0 186 -76t77 -216
q0 -105 -66.5 -192.5t-188.5 -87.5q-74 0 -143 38t-117.5 137.5t-48.5 272.5q0 181 138.5 325t350.5 144q135 0 216 -26.5t127 -60.5q121 83 283 83q73 0 152.5 -27.5t102.5 -51.5q59 36 138.5 53.5t196.5 17.5h323v-77h-140v-818h-148v818h-67q-73 0 -136 -11t-94 -32
q80 -68 127.5 -170t47.5 -207q0 -198 -62.5 -302t-174.5 -104q-116 0 -172 112t-56 274q0 118 43 225.5t99 155.5q-25 18 -81.5 39.5t-115.5 21.5zM319 461q-57 0 -93 -52.5t-36 -127.5q0 -16 1 -25q0 -76 44.5 -128.5t105.5 -52.5h12q57 0 93 53t36 128q0 16 -4.5 59
t-46 94.5t-100.5 51.5h-12zM773 384q0 -94 23.5 -186t98.5 -92q51 0 81.5 83t30.5 207q0 105 -31 181.5t-91 130.5q-62 -73 -87 -147.5t-25 -176.5zM1307 384q0 -91 24.5 -184.5t97.5 -93.5q51 0 82.5 83.5t31.5 206.5q0 104 -30 186t-88 131q-64 -72 -91 -150.5t-27 -178.5
z" />
    <glyph glyph-name="bar" unicode="{" horiz-adv-x="498" 
d="M-87 895h199q61 0 111 -10q23 10 110 10h120v-99h-53q17 -29 21.5 -53.5t4.5 -56.5q0 -58 -49 -116t-146 -58q-69 0 -124.5 52.5t-55.5 117.5q0 36 5.5 58.5t20.5 55.5h-164v99zM211 794q-35 0 -51 -32.5t-16 -71.5q4 -34 22.5 -62.5t52.5 -28.5q35 0 52 31.5t17 73.5
q-4 36 -21.5 63t-55.5 27z" />
    <glyph glyph-name="braceright" unicode="|" horiz-adv-x="414" 
d="M268 1039q-31 -36 -65 -63.5t-69 -43.5l-18 34q42 23 69.5 47.5t43.5 52.5q15 23 23 47.5t10 41.5q0 10 -8 18q-10 4 -16 4l-57 -8q-35 0 -66.5 24.5t-31.5 67.5q0 34 29 69q18 30 79 30q29 0 51 -9.5t44 -33.5q45 -40 45 -117q0 -86 -63 -161z" />
    <glyph glyph-name="asciitilde" unicode="}" horiz-adv-x="592" 
d="M-230 895h734v-79h-210v-818h-150v818h-296z" />
    <glyph glyph-name="Adieresis" unicode="~" horiz-adv-x="396" 
d="M132 1259q61 75 134 105l16 -32q-84 -47 -111 -100q-15 -23 -24 -48.5t-11 -42.5q0 -9 10 -16l14 -4l59 8q32 0 67 -25q29 -24 29 -67q0 -20 -5.5 -34.5t-21.5 -34.5q-20 -32 -79 -32q-28 0 -52 10.5t-43 33.5q-47 38 -47 116q0 83 65 163z" />
    <glyph glyph-name="copyright" unicode="&#xa9;" horiz-adv-x="3774" 
d="M519 315h-145v-272q0 -19 10 -24.5t35 -5.5v-13h-122v13h40v400q0 20 -10 25.5t-36 5.5v12h123v-12h-40v-114h145v83q0 20 -9.5 25.5t-35.5 5.5v12h123v-12h-40v-401q0 -19 10.5 -24.5t35.5 -5.5v-13h-123v13h39v302zM807 297h-57l-48 -198q-3 -13 -5.5 -28t-2.5 -26
q0 -19 9.5 -24.5t32.5 -7.5h19v-13h-122v13h29l110 467h13l121 -386l12 -35.5t14 -30t33 -15.5v-13h-112v13h43zM798 313l-21 89l-22 -89h43zM1072 136l7 11q34 -24 65.5 -38.5t62.5 -14.5q68 0 114 50t46 118q0 74 -51.5 126.5t-124.5 52.5q-72 0 -119 -55v-250zM1072 456
v-43q30 21 65.5 34.5t68.5 13.5q79 0 139 -54t60 -133q0 -82 -59.5 -138.5t-140.5 -56.5l20 -10l98 -44.5t64 -16.5q21 0 35 7l5 -7q-10 -9 -22.5 -12.5t-27.5 -3.5q-45 0 -124 28.5t-181 89.5v-60q0 -23 7 -30t37 -7h16v-13h-137v13h40v400q0 20 -10 25.5t-36 5.5v12h83z
M1620 297h-57l-48 -198q-4 -17 -6.5 -29t-2.5 -25q0 -15 7.5 -22.5t35.5 -9.5h19v-13h-123v13h30l110 467h13l121 -386q7 -22 12.5 -36.5t13.5 -29.5t32 -15v-13h-112v13h44zM1611 313l-21 89l-22 -89h43zM2047 -24h-11l-179 382l-1 -293q0 -32 12.5 -42t38.5 -10v-13h-107
v13h35v379q0 30 -13 41t-38 11v12h65l176 -378l1 314q0 18 -6.5 35t-37.5 17v12h98v-12h-33v-468zM2585 478h12v-167h-12q0 24 -2.5 45.5t-12.5 43.5t-48 37.5t-76 15.5q-90 0 -148.5 -64.5t-58.5 -160.5q0 -83 64 -154t143 -71q42 0 76.5 12t63.5 35v22v19q0 28 -8 34
t-46 6h-14v12h152v-12h-46v-13q-1 -13 -1 -20q0 -21 11 -30q-38 -37 -87.5 -59.5t-100.5 -22.5q-102 0 -173.5 69.5t-71.5 171.5q0 103 77 173t182 70q35 0 63.5 -8t61.5 -25v41zM2671 233l75 89l9 -8l-17 -21v-25q19 19 34 28.5t36 9.5q13 0 19.5 -1.5t20.5 -7.5v27h12
v-129h-12v4v15q0 17 -1 24t-4 18q-12 29 -40 32q-18 3 -37 -12.5t-28 -36.5v-196q0 -25 12 -27.5t28 -2.5v-13h-105v13h32v242l-25 -30zM3058 0v15q-16 -11 -35 -17.5t-38 -6.5q-41 0 -70 28t-29 69q0 48 37 79.5t86 31.5q25 0 49 -12v8v17q0 28 -10 46q-15 32 -53 32
q-37 0 -59 -32.5t-22 -70.5h-12v138h12v-59q20 20 40 30t46 10q50 0 67.5 -25.5t20 -46t2.5 -46.5v-145q0 -22 8 -26t34 -4v-13h-74zM3058 37v113q-13 16 -27.5 24t-33.5 8q-36 0 -60.5 -22.5t-24.5 -57.5q0 -36 24.5 -65t60.5 -29q19 0 33.5 7.5t27.5 21.5zM3180 289v-31
q25 22 55.5 35t60.5 13q62 0 105.5 -42.5t43.5 -103.5q0 -67 -38 -103.5t-70 -51t-65 -14.5q-52 0 -92 34v-173q0 -21 8.5 -26t32.5 -5v-12h-105v12h32v431l-25 -30l-9 8l74 88l10 -7zM3180 236v-165q21 -27 49 -42.5t61 -15.5q53 0 91 38t38 91q0 56 -39.5 98.5t-95.5 42.5
q-62 0 -104 -47zM3440 0v13h33v434l-30 -35l-10 7l76 89l9 -8l-14 -16v-213q18 17 35 26t39 9q19 0 36.5 -9t29.5 -27t13.5 -40.5t1.5 -41.5v-145q0 -22 8 -26t33 -4v-13h-106v13h33v176q0 22 -1.5 37t-11 38.5t-48.5 23.5q-28 0 -45 -25.5t-17 -54.5v-165q0 -22 8 -26
t33 -4v-13h-105zM136 238q-51 0 -86 35t-35 86t35.5 85.5t85.5 34.5q51 0 86 -34t35 -86q0 -51 -35 -86t-86 -35zM136 469q-45 0 -77 -32t-32 -78q0 -44 31.5 -76.5t77.5 -32.5q45 0 77 32t32 77q0 46 -32 78t-77 32zM188 421v-37h-7l-3 19q-3 8 -14 13t-21 5
q-26 0 -39.5 -16t-13.5 -44q0 -25 13.5 -44t38.5 -19q31 0 43 28l5 -3q-15 -35 -56 -35q-28 0 -45.5 20.5t-17.5 49.5q0 32 19 51t51 19q26 0 47 -7z" />
    <glyph glyph-name="uni00A0" unicode="&#xa0;" horiz-adv-x="1150" 
 />
    <glyph glyph-name="quotesinglbase" unicode="&#x201a;" horiz-adv-x="1634" 
d="M1511 645h-151q-52 -58 -108.5 -101.5t-116.5 -70.5q-38 -3 -56 -3q-25 0 -55.5 5.5t-62.5 15.5l-36 -21h-41q-136 0 -136 97v7v9q-55 5 -83 32t-28 75q0 5 0.5 12.5t1.5 16.5q-20 5 -35.5 14.5t-25.5 21.5t-15.5 28.5t-5.5 34.5q0 16 5 32.5t14 33.5q-50 57 -50 125
q0 79 86 126q43 24 101.5 36.5t129.5 12.5h24q-5 45 -19 89.5t-35 85.5l-15 29q-25 50 -37.5 89t-12.5 66q0 76 38.5 123t115.5 65l29 8l51 -225l186 -198q10 -11 27 -32.5t39 -53.5l29 -37q23 -31 39.5 -50t25.5 -24q9 -7 24 -10.5t35 -3.5h119q25 -56 38 -114t13 -116
t-12 -115.5t-34 -114.5zM1477 692q16 45 24 88.5t8 84.5q0 48 -9 96.5t-26 95.5q-63 0 -103 3.5t-56 11.5q-33 15 -97 103l-32.5 42l-45.5 56l-203 212l-41 188q-50 -17 -75.5 -49.5t-25.5 -79.5q0 -25 9 -52t25 -55l14 -22q39 -65 59 -128.5t20 -122.5l1 -28h-35
q-79 0 -138 -7t-97 -22q-40 -15 -60 -38.5t-20 -54.5q0 -55 42 -93t103 -38h62l173 71q-39 56 -104 56q-8 0 -19 -2.5l-24 -5.5t-29 -9t-34 -12l-50 -2l-48 46h84q16 8 32 14t29 10q14 4 27.5 6t24.5 2q62 0 107.5 -31t73.5 -92l-34 -14q31 -14 56 -39.5t42 -61.5l-40 -19
q23 -14 45 -39t41 -61l-63 -28q25 -19 46.5 -46t36.5 -62l-124 -46h28h24h39q66 36 121 79.5t97 94.5h139zM1016 841q-17 22 -38 36.5t-46 19.5l-140 -62h-54q-39 0 -68.5 5t-48.5 15q-8 -9 -12 -18t-4 -17q0 -16 7.5 -28.5t22.5 -19.5q15 -8 37.5 -12t52.5 -4h104z
M1059 721l-4 6t-4 4q-12 14 -26.5 25.5t-30.5 18.5l-155 -67h-152l-3 -14q0 -32 28 -48.5t83 -16.5h71zM1081 582l-7.5 9t-4.5 6q-18 30 -49 55l-143 -71h-82v-6q0 -57 89 -57h30z" />
  </font>
</defs>
</svg>
